#!OML:ASF E:\Mandelcareful walks\Project 1\Capture day 1\Session 1\Subject1.ASF
:FULLY-SPECIFIED
:DEGREES
95
root 11.4822 16.7844 -1.43588 -151.942 -82.2426 153.39
lowerback 4.21871 0.48715 -4.78206
upperback 3.6093 0.424254 1.40253
thorax 1.31126 0.0666115 4.1193
lowerneck -22.993 -0.21647 -6.28047
upperneck 37.5126 0.55873 1.75835
head 17.7577 -0.816242 1.91604
rclavicle -8.15017e-015 8.74653e-015
rhumerus -26.2185 0.312049 -86.0817
rradius 33.8025
rwrist -14.3383
rhand -8.93011 -33.7257
rfingers 7.12502
rthumb 17.0137 -63.0007
lclavicle -8.15017e-015 8.74653e-015
lhumerus -26.5187 -10.951 94.051
lradius 26.2283
lwrist 10.2543
lhand -22.0928 -9.54122
lfingers 7.12502
lthumb 4.31919 20.3947
rfemur -9.49454 -3.79485 8.79035
rtibia 22.2194
rfoot -12.1967 -14.3536
rtoes -4.4238
lfemur -2.26175 -4.42876 -16.0791
ltibia 19.7429
lfoot -25.9833 29.1084
ltoes 4.15664
96
root 11.5127 16.7737 -1.48429 -151.556 -82.1056 152.934
lowerback 4.96269 0.610111 -4.58922
upperback 3.74802 0.550932 1.35924
thorax 1.02691 0.13431 3.95703
lowerneck -22.9909 0.0439873 -5.99151
upperneck 37.6415 0.894294 1.58905
head 17.8099 -0.670681 1.86017
rclavicle -6.65929e-015 9.54166e-015
rhumerus -26.3336 1.07176 -86.478
rradius 34.6284
rwrist -15.6695
rhand -10.2342 -32.6091
rfingers 7.12502
rthumb 15.7581 -61.9876
lclavicle -6.65929e-015 9.54166e-015
lhumerus -26.6207 -11.3719 93.7287
lradius 26.7562
lwrist 11.0669
lhand -21.7992 -9.4554
lfingers 7.12502
lthumb 4.60269 20.4746
rfemur -9.89253 -4.00202 8.83705
rtibia 22.7919
rfoot -12.3789 -14.0137
rtoes -4.4147
lfemur -2.20773 -4.41934 -16.0088
ltibia 19.6671
lfoot -26.1368 29.0247
ltoes 4.84804
97
root 11.5472 16.7653 -1.5323 -149.942 -82.0707 151.29
lowerback 5.63842 0.671351 -4.41037
upperback 3.97613 0.598126 1.30726
thorax 0.882979 0.154929 3.79652
lowerneck -23.3433 0.215272 -5.97012
upperneck 37.9854 1.13129 1.67662
head 18.0777 -0.574453 1.95693
rclavicle -1.15295e-014 -2.38542e-015
rhumerus -26.2871 1.78368 -86.7878
rradius 35.6033
rwrist -16.8642
rhand -10.2155 -32.4554
rfingers 7.12502
rthumb 15.7761 -61.8325
lclavicle -1.15295e-014 -2.38542e-015
lhumerus -26.4 -11.3713 93.2072
lradius 27.149
lwrist 11.6923
lhand -21.1366 -9.45749
lfingers 7.12502
lthumb 5.24246 20.4577
rfemur -10.288 -4.47236 8.76447
rtibia 23.3521
rfoot -12.4634 -13.5541
rtoes -4.63952
lfemur -2.27034 -4.4448 -16.025
ltibia 19.5859
lfoot -26.1054 28.9395
ltoes 5.29944
98
root 11.5826 16.7628 -1.58659 -147.592 -81.9946 148.906
lowerback 6.22367 0.767704 -4.58366
upperback 4.32273 0.676983 1.44598
thorax 0.907055 0.17323 4.03216
lowerneck -23.7948 0.254041 -6.13033
upperneck 38.219 1.38849 1.48708
head 18.3178 -0.533293 1.96143
rclavicle 1.78906e-015 -3.18055e-015
rhumerus -26.1097 2.48671 -86.6414
rradius 36.8802
rwrist -17.252
rhand -10.0455 -32.9235
rfingers 7.12502
rthumb 15.9398 -62.2875
lclavicle 1.78906e-015 -3.18055e-015
lhumerus -26.0651 -11.0654 92.9482
lradius 27.6187
lwrist 12.0038
lhand -20.9604 -10.0292
lfingers 7.12502
lthumb 5.41255 19.8817
rfemur -10.6509 -4.92609 8.59813
rtibia 23.8911
rfoot -12.5555 -13.1365
rtoes -5.34554
lfemur -2.39903 -4.32399 -16.1166
ltibia 19.5318
lfoot -25.7613 28.8984
ltoes 5.20231
99
root 11.6286 16.7623 -1.65021 -146.425 -82.0829 147.76
lowerback 6.98813 0.867263 -4.76219
upperback 4.60154 0.747559 1.82102
thorax 0.760874 0.188859 4.51603
lowerneck -24.2686 0.40429 -6.04989
upperneck 38.4313 1.96849 0.708333
head 18.5554 -0.421117 1.71458
rclavicle -2.98177e-015 -8.74653e-015
rhumerus -25.9691 3.88852 -86.5915
rradius 37.9431
rwrist -19.1825
rhand -11.6893 -32.5741
rfingers 7.12502
rthumb 14.3564 -62.0577
lclavicle -2.98177e-015 -8.74653e-015
lhumerus -25.8538 -10.5285 92.9109
lradius 28.1475
lwrist 12.1923
lhand -21.4735 -11.2243
lfingers 7.12502
lthumb 4.91714 18.6987
rfemur -11.0674 -5.17764 8.76687
rtibia 24.4209
rfoot -12.7283 -13.0329
rtoes -5.73764
lfemur -2.68662 -3.98633 -15.8572
ltibia 19.5297
lfoot -25.0565 28.7068
ltoes 4.4739
100
root 11.6786 16.7546 -1.71303 -144.019 -82.2292 145.325
lowerback 8.18389 0.903682 -4.63035
upperback 4.68498 0.735061 1.91434
thorax 0.188418 0.190516 4.53243
lowerneck -24.7171 0.694756 -5.70737
upperneck 38.7808 2.60305 0.00182141
head 18.8772 -0.250014 1.46647
rclavicle -1.39149e-015 -2.70347e-014
rhumerus -26.101 4.75646 -86.7582
rradius 38.9185
rwrist -20.1006
rhand -12.3063 -32.0992
rfingers 7.12502
rthumb 13.7618 -61.6241
lclavicle -1.39149e-015 -2.70347e-014
lhumerus -25.9564 -9.93073 92.4611
lradius 28.7195
lwrist 12.1984
lhand -21.5826 -11.903
lfingers 7.12502
lthumb 4.81177 18.0224
rfemur -11.4065 -5.57559 8.79293
rtibia 24.9423
rfoot -12.9234 -12.9069
rtoes -5.35849
lfemur -3.02372 -3.3483 -15.6756
ltibia 19.6004
lfoot -23.994 28.1909
ltoes 3.20735
101
root 11.7278 16.7444 -1.77933 -141.669 -82.3673 142.904
lowerback 9.58384 0.945679 -4.11162
upperback 4.69445 0.756244 1.76911
thorax -0.5687 0.22381 4.07683
lowerneck -24.7163 0.739838 -5.81603
upperneck 38.7835 2.70626 0.0593738
head 18.8706 -0.214528 1.53743
rclavicle 3.97569e-015 -1.59028e-014
rhumerus -26.41 5.23887 -87.1657
rradius 39.9602
rwrist -20.4879
rhand -12.8394 -31.4542
rfingers 7.12502
rthumb 13.248 -61.0132
lclavicle 3.97569e-015 -1.59028e-014
lhumerus -26.2076 -9.60279 91.7352
lradius 29.2907
lwrist 12.3889
lhand -21.5808 -12.0121
lfingers 7.12502
lthumb 4.81357 17.9132
rfemur -11.7133 -5.85131 8.83409
rtibia 25.5029
rfoot -13.2598 -12.8077
rtoes -4.16286
lfemur -3.41814 -2.25848 -15.4184
ltibia 19.8462
lfoot -22.729 27.263
ltoes 2.09043
102
root 11.7736 16.7351 -1.84913 -140.119 -82.5561 141.219
lowerback 10.9427 1.00383 -3.39484
upperback 4.80845 0.828979 1.64153
thorax -1.19197 0.273323 3.52254
lowerneck -24.3824 0.658009 -6.00268
upperneck 38.4473 2.62772 0.108784
head 18.5836 -0.240306 1.57167
rclavicle -8.74653e-015 -1.66979e-014
rhumerus -26.5808 5.65828 -87.5762
rradius 41.1056
rwrist -20.9177
rhand -13.6192 -31.0534
rfingers 7.12502
rthumb 12.4963 -60.6597
lclavicle -8.74653e-015 -1.66979e-014
lhumerus -26.2224 -9.58975 91.0869
lradius 29.594
lwrist 12.9887
lhand -22.0639 -12.3001
lfingers 7.12502
lthumb 4.34707 17.6352
rfemur -11.9592 -6.06196 9.02482
rtibia 26.1006
rfoot -13.6881 -12.7119
rtoes -3.18431
lfemur -3.87225 -0.934419 -14.9878
ltibia 20.3691
lfoot -21.47 26.0362
ltoes 1.09025
103
root 11.8346 16.7291 -1.90798 -133.682 -82.6922 134.934
lowerback 11.9272 0.922454 -2.86287
upperback 5.04177 0.719977 1.35143
thorax -1.46703 0.219596 2.92821
lowerneck -24.3062 0.567372 -5.99579
upperneck 37.9281 2.57038 -0.0252856
head 18.2714 -0.242898 1.49391
rclavicle -7.55382e-015 1.59028e-015
rhumerus -26.4482 6.1492 -87.9767
rradius 42.4243
rwrist -21.4693
rhand -14.5525 -31.2196
rfingers 7.12502
rthumb 11.5964 -60.8787
lclavicle -7.55382e-015 1.59028e-015
lhumerus -25.7608 -9.35881 90.2829
lradius 29.7549
lwrist 13.0802
lhand -22.8236 -13.1201
lfingers 7.12502
lthumb 3.61344 16.8291
rfemur -12.5887 -7.06196 8.67757
rtibia 26.8483
rfoot -13.978 -12.3103
rtoes -3.22565
lfemur -4.97819 0.599507 -15.076
ltibia 21.2087
lfoot -19.9528 24.4674
ltoes -0.680704
104
root 11.8954 16.7166 -1.97718 -131.097 -83.0048 132.34
lowerback 12.5801 0.928452 -1.91227
upperback 5.66822 0.772176 1.20171
thorax -1.1583 0.229205 2.22653
lowerneck -24.5147 0.444615 -5.98242
upperneck 37.2721 2.45945 -0.0405147
head 17.9601 -0.236602 1.46408
rclavicle -3.57812e-015 3.18055e-015
rhumerus -25.7121 6.40622 -88.194
rradius 43.4031
rwrist -21.4872
rhand -14.2899 -28.9701
rfingers 7.12502
rthumb 11.8496 -58.6149
lclavicle -3.57812e-015 3.18055e-015
lhumerus -24.894 -9.06355 89.3532
lradius 30.0344
lwrist 12.7494
lhand -23.5497 -13.9937
lfingers 7.12502
lthumb 2.91222 15.9662
rfemur -13.1283 -7.52238 8.98134
rtibia 27.6868
rfoot -14.3332 -12.309
rtoes -3.47991
lfemur -6.07362 2.55388 -14.5355
ltibia 22.435
lfoot -18.6242 22.6192
ltoes -2.7296
